<svg width="400" height="400" viewBox="0 0 400 400" fill="none" xmlns="http://www.w3.org/2000/svg">
<path d="M2.5 102.725V2.5H35.5952V102.725C35.5952 103.296 35.5947 103.865 35.5942 104.431C35.5884 110.729 35.5829 116.651 36.3053 121.889C37.0998 127.65 38.8051 132.873 42.5702 137.138L42.5898 137.161L42.61 137.182C46.4436 141.323 51.8068 143.921 57.624 145.492C63.457 147.068 69.9261 147.661 76.1905 147.661C82.4667 147.661 88.9776 147.024 94.8269 145.428C100.646 143.84 106.009 141.248 109.762 137.193C113.673 133.057 115.373 127.694 116.141 121.874C116.814 116.781 116.802 111.05 116.789 105.144C116.787 104.341 116.786 103.534 116.786 102.725V2.5H149.881V102.725C149.881 128.514 144.827 146.819 131.604 159.485L131.598 159.49L131.593 159.496C118.43 172.26 100.283 178.145 76.1905 178.145C52.2748 178.145 33.7883 172.096 20.794 159.501C7.88272 146.821 2.5 127.819 2.5 102.725ZM250.403 104.561L250.393 104.559L250.383 104.556C240.238 102.066 232.098 99.6735 225.932 97.3846C219.836 94.9555 213.977 91.7967 208.356 87.9022C203.102 84.1477 199.238 79.4925 196.708 73.921C194.32 68.1215 193.085 61.1246 193.085 52.8656C193.085 37.6969 198.572 25.639 209.536 16.4543C220.737 7.21226 235.191 2.5 253.105 2.5C277.087 2.5 298.029 9.28221 316.031 22.8202L298.4 47.9205C282.089 37.136 266.803 31.5745 252.594 31.5745C244.977 31.5745 238.686 33.1345 234.022 36.5662C229.491 39.8569 227.128 44.353 227.128 49.8591C227.128 56.4351 230.075 61.5194 235.781 64.8038C241.06 67.8417 251.77 71.3353 267.541 75.3315C286.776 80.3021 300.641 86.6107 309.407 94.1022C317.918 101.376 322.311 111.885 322.311 126.026C322.311 142.391 316.551 155.002 305.129 164.163C293.78 173.235 278.563 177.895 259.229 177.895C231.405 177.895 207.352 169.283 186.953 152.061L206.999 128.486C224.248 141.949 241.925 148.82 259.995 148.82C268.267 148.82 275.101 147.271 280.247 143.902C285.523 140.449 288.268 135.498 288.268 129.283C288.268 123.304 285.349 118.555 279.983 115.159C274.811 111.723 264.809 108.222 250.403 104.561ZM364.405 178.145V2.5H397.5V178.145H364.405Z" stroke="white" stroke-width="5"/>
<path d="M29.9504 242.098L29.9505 242.098C48.4356 224.321 71.4898 215.403 99.294 215.403C127.105 215.403 149.974 224.239 168.097 241.831L168.105 241.839C186.425 259.456 195.555 280.942 195.555 306.452C195.555 331.776 186.345 353.267 167.839 371.064C149.536 388.664 126.573 397.5 98.7615 397.5C70.9526 397.5 47.9909 388.665 29.6887 371.068C11.5466 353.455 2.5 331.967 2.5 306.452C2.5 281.12 11.6271 259.718 29.9504 242.098ZM141.29 348.759L141.297 348.752L141.303 348.745C152.241 337.228 157.697 323.076 157.697 306.452C157.697 289.978 152.138 275.911 141.023 264.401C129.87 252.853 115.718 247.099 98.7615 247.099C81.8089 247.099 67.738 252.852 56.7588 264.409C45.8131 275.759 40.3588 289.83 40.3588 306.452C40.3588 322.925 45.9177 336.993 57.0327 348.502C68.1851 360.05 82.3379 365.804 99.294 365.804C116.237 365.804 130.307 360.145 141.29 348.759ZM364.405 329.032V215.403H397.5L397.5 397.5H369.489L281.35 282.351L276.865 276.492V283.871L276.865 397.5H237.421L237.421 215.403H271.781L359.92 330.552L364.405 336.411V329.032Z" stroke="white" stroke-width="5"/>
</svg>
