<svg width="61" height="42" viewBox="0 0 61 42" fill="none" xmlns="http://www.w3.org/2000/svg">
<path d="M2 21C19.1 -4.33333 41.9 -4.33333 59 21C41.9 46.3333 19.1 46.3333 2 21Z" stroke="#434343" stroke-width="3" stroke-linejoin="round"/>
<path d="M40 21C40 23.5196 38.9991 25.9359 37.2175 27.7175C35.4359 29.4991 33.0196 30.5 30.5 30.5C27.9804 30.5 25.5641 29.4991 23.7825 27.7175C22.0009 25.9359 21 23.5196 21 21C21 18.4804 22.0009 16.0641 23.7825 14.2825C25.5641 12.5009 27.9804 11.5 30.5 11.5C33.0196 11.5 35.4359 12.5009 37.2175 14.2825C38.9991 16.0641 40 18.4804 40 21Z" stroke="#434343" stroke-width="3" stroke-linejoin="round"/>
</svg>
