<svg width="400" height="400" viewBox="0 0 400 400" fill="none" xmlns="http://www.w3.org/2000/svg">
<path d="M76.1905 180.645C51.8631 180.645 32.6573 174.486 19.0476 161.29C5.4379 147.928 0 128.114 0 102.725V0H38.0952V102.725C38.0952 116.755 37.8097 127.967 44.4444 135.484C51.2493 142.833 63.9417 145.161 76.1905 145.161C88.4392 145.161 101.302 142.666 107.937 135.484C114.741 128.301 114.286 116.421 114.286 102.725V0H152.381V102.725C152.381 128.782 147.283 147.928 133.333 161.29C119.554 174.653 100.688 180.645 76.1905 180.645Z" fill="white"/>
<path d="M259.229 180.395C229.968 180.395 204.705 171.041 183.44 152.333L206.662 125.023C224.184 139.221 241.962 146.32 259.995 146.32C267.99 146.32 274.285 144.817 278.878 141.81C283.471 138.804 285.768 134.628 285.768 129.283C285.768 124.272 283.386 120.263 278.623 117.257C273.86 114.083 264.248 110.659 249.787 106.984C239.58 104.479 231.329 102.057 225.035 99.7181C218.74 97.2127 212.701 93.9555 206.917 89.9468C201.303 85.938 197.135 80.927 194.413 74.9139C191.861 68.7337 190.585 61.3843 190.585 52.8656C190.585 36.9976 196.369 24.2196 207.938 14.5318C219.676 4.84393 234.732 0 253.105 0C278.453 0 300.569 7.43293 319.452 22.2988L299.038 51.3624C282.196 39.8372 266.715 34.0745 252.594 34.0745C245.279 34.0745 239.58 35.5778 235.497 38.5844C231.584 41.4239 229.628 45.1822 229.628 49.8591C229.628 55.5382 232.095 59.7975 237.028 62.637C241.962 65.4766 252.339 68.9007 268.161 72.9095C287.554 77.9204 301.845 84.3512 311.031 92.2017C320.218 100.052 324.811 111.327 324.811 126.026C324.811 143.063 318.772 156.426 306.693 166.113C294.785 175.634 278.963 180.395 259.229 180.395Z" fill="white"/>
<path d="M361.905 180.645V0H400V180.645H361.905Z" fill="white"/>
<path d="M169.572 372.866C150.76 390.955 127.157 400 98.7615 400C70.3665 400 46.7631 390.955 27.9514 372.866C9.31713 354.776 0 332.638 0 306.452C0 280.437 9.40586 258.385 28.2176 240.296C47.2068 222.034 70.8989 212.903 99.294 212.903C127.689 212.903 151.204 221.948 169.838 240.037C188.65 258.127 198.055 280.265 198.055 306.452C198.055 332.466 188.561 354.604 169.572 372.866ZM58.831 346.765C69.4791 357.791 82.9668 363.304 99.294 363.304C115.621 363.304 129.02 357.877 139.491 347.024C149.961 335.998 155.197 322.474 155.197 306.452C155.197 290.602 149.873 277.164 139.224 266.138C128.576 255.112 115.089 249.599 98.7615 249.599C82.4344 249.599 69.0355 255.112 58.5648 266.138C48.0941 276.992 42.8588 290.429 42.8588 306.452C42.8588 322.301 48.1828 335.739 58.831 346.765Z" fill="white"/>
<path d="M234.921 400L234.921 212.903H273.016L361.905 329.032V212.903H400L400 400H368.254L279.365 283.871L279.365 400H234.921Z" fill="white"/>
</svg>
