<svg width="63" height="62" viewBox="0 0 63 62" fill="none" xmlns="http://www.w3.org/2000/svg">
<g clip-path="url(#clip0_323_1252)">
<path d="M44.6096 0H17.8439C7.98897 0 0 7.93095 0 17.7143V44.2857C0 54.069 7.98897 62 17.8439 62H44.6096C54.4645 62 62.4535 54.069 62.4535 44.2857V17.7143C62.4535 7.93095 54.4645 0 44.6096 0Z" fill="#191817"/>
<path d="M37.2125 14.3928C37.3465 16.147 36.7928 17.8843 35.669 19.236C35.1308 19.9066 34.4478 20.4462 33.6714 20.814C32.8949 21.1818 32.0452 21.3683 31.1864 21.3594C31.1316 20.5159 31.2434 19.6698 31.5152 18.8696C31.7868 18.0693 32.2134 17.3305 32.7704 16.6956C33.9094 15.3957 35.4955 14.5735 37.2125 14.3928Z" fill="white"/>
<path d="M40.3441 26.8386C39.7734 27.8459 39.4664 28.9814 39.4516 30.1395C39.4529 31.4421 39.837 32.7156 40.556 33.801C41.2749 34.8865 42.2968 35.7359 43.4943 36.2433C43.0235 37.7757 42.3138 39.2238 41.3915 40.5341C40.1528 42.3905 38.8543 44.2041 36.793 44.2376C35.8127 44.2602 35.151 43.9778 34.4614 43.6835C33.7422 43.3766 32.9927 43.0566 31.8199 43.0566C30.576 43.0566 29.793 43.3869 29.0378 43.7053C28.3852 43.9804 27.7534 44.2469 26.8628 44.2839C24.8998 44.3567 23.3996 42.3027 22.1159 40.4637C19.5503 36.7083 17.5525 29.8803 20.2308 25.2344C20.8492 24.1213 21.7448 23.1875 22.8304 22.5242C23.9159 21.8609 25.1545 21.4906 26.4253 21.4495C27.5387 21.4266 28.607 21.8565 29.5437 22.2334C30.2599 22.5217 30.8992 22.779 31.4227 22.779C31.8829 22.779 32.5043 22.5319 33.2285 22.2439C34.3693 21.7902 35.7653 21.2352 37.1878 21.3847C38.278 21.4188 39.3452 21.7073 40.3047 22.2269C41.2642 22.7466 42.0895 23.4833 42.7151 24.3785C41.7304 24.9851 40.9147 25.8314 40.3441 26.8386Z" fill="white"/>
</g>
<defs>
<clipPath id="clip0_323_1252">
<rect width="62.4535" height="62" fill="white"/>
</clipPath>
</defs>
</svg>
