<svg width="63" height="62" viewBox="0 0 63 62" fill="none" xmlns="http://www.w3.org/2000/svg">
<g clip-path="url(#clip0_323_1262)">
<path d="M44.9719 0H18.2062C8.35127 0 0.362305 7.93095 0.362305 17.7143V44.2857C0.362305 54.069 8.35127 62 18.2062 62H44.9719C54.8268 62 62.8158 54.069 62.8158 44.2857V17.7143C62.8158 7.93095 54.8268 0 44.9719 0Z" fill="#C8102E"/>
<path fill-rule="evenodd" clip-rule="evenodd" d="M42.7966 5.53564H20.3761C9.80578 5.53564 5.93848 9.37405 5.93848 19.8653V42.1345C5.93848 52.6259 9.80578 56.4642 20.3761 56.4642H42.7966C53.3669 56.4642 57.2396 52.6259 57.2396 42.1345V19.8653C57.2504 9.37405 53.3831 5.53564 42.7966 5.53564Z" fill="#C8102E"/>
<path d="M16.0985 31H17.4596V37.6636H16.0985V34.9564H13.0252V37.6636H11.6641V31H13.0252V33.6805H16.0985V31ZM23.7682 34.8116C23.7682 35.8838 23.2281 36.4735 22.2451 36.4735C21.2621 36.4735 20.7111 35.8838 20.7111 34.7527V31H19.3501V34.8062C19.3501 36.6772 20.3979 37.7494 22.2235 37.7494C24.0491 37.7494 25.1294 36.6772 25.1294 34.7472V31H23.7682V34.8116ZM39.4967 35.5783L37.9735 31H36.8555L35.3431 35.5836L33.8578 31H32.4102L34.749 37.6636H35.8778L37.3956 33.2891L38.9188 37.6636H40.0584L42.3972 31H40.9821L39.4967 35.5783ZM44.8331 34.7902H47.3123V33.584H44.8331V32.2223H48.4303V31H43.4936V37.6475H48.56V36.4467H44.8331V34.7902ZM50.1804 37.6475H51.5252V31H50.1804V37.6475ZM27.8192 36.2698L27.2088 37.6529H25.8207L28.7536 31H29.9527L32.8964 37.6529H31.492L30.9141 36.2751L27.8192 36.2698ZM28.3269 35.069H30.374L29.3478 32.6887L28.3269 35.069Z" fill="white"/>
<path d="M31.594 22.5243C29.3297 22.5229 27.1584 21.6295 25.5574 20.0404C23.9562 18.4512 23.056 16.2962 23.0547 14.0488H24.2591C24.2591 15.9796 25.0319 17.8313 26.4074 19.1966C27.783 20.5619 29.6487 21.3288 31.594 21.3288C33.5394 21.3288 35.405 20.5619 36.7806 19.1966C38.1562 17.8313 38.9289 15.9796 38.9289 14.0488H40.1334C40.1319 16.2962 39.2318 18.4512 37.6307 20.0404C36.0295 21.6295 33.8584 22.5229 31.594 22.5243Z" fill="white"/>
</g>
<defs>
<clipPath id="clip0_323_1262">
<rect width="62.4535" height="62" fill="white" transform="translate(0.362305)"/>
</clipPath>
</defs>
</svg>
