<svg width="82" height="82" viewBox="0 0 82 82" fill="none" xmlns="http://www.w3.org/2000/svg">
<path d="M46.0126 56.145L46.0464 56.1875C45.3934 56.677 44.7459 57.1308 44.1018 57.5041L44.1017 57.5041C43.567 57.8141 43.0335 58.0695 42.5 58.244V58.1936C43.0163 58.0219 43.535 57.773 44.0577 57.4699M46.0126 56.145L44.0575 57.47C44.0576 57.47 44.0576 57.47 44.0577 57.4699M46.0126 56.145C45.3551 56.6384 44.7043 57.095 44.0577 57.4699M46.0126 56.145L44.0577 57.4699M39.5 58.244C38.9665 58.0695 38.433 57.8141 37.8983 57.5042C37.2542 57.1308 36.6066 56.677 35.9536 56.1876L35.9875 56.145C36.645 56.6384 37.2957 57.095 37.9423 57.4699C37.9424 57.47 37.9424 57.47 37.9425 57.47L39.5 58.244ZM39.5 58.244V58.1936V58.244ZM54.7044 24.4334C58.275 26.0526 60.9083 29.6227 61.4124 33.9062H61.3425C60.8386 29.6295 58.21 26.0778 54.6673 24.4712C51.3645 22.9734 47.252 23.1593 43.3013 26.0448L43.2634 26.0058C47.2295 23.1155 51.3703 22.9214 54.7044 24.4334L55.3239 23.0674L54.7044 24.4334ZM61.4351 36.9062C61.0651 41.1244 59.1506 44.4594 56.6296 47.2757L57.7472 48.2762L56.6296 47.2758C54.3477 49.825 51.5684 51.9495 48.9943 53.9171C48.8023 54.0639 48.6114 54.2098 48.422 54.3549L48.3881 54.3122C48.5719 54.1714 48.757 54.0299 48.9432 53.8876C51.5172 51.92 54.2912 49.7995 56.5695 47.2544L55.4519 46.2539L56.5695 47.2544C59.0843 44.4449 60.9955 41.1175 61.3652 36.9062H61.4351ZM33.0573 53.8879C33.2433 54.0301 33.4283 54.1715 33.612 54.3122L33.5781 54.355C33.3889 54.21 33.1982 54.0643 33.0065 53.9177C30.4322 51.9499 27.6526 49.8252 25.3705 47.2758L25.3705 47.2757C22.8494 44.4594 20.9349 41.1244 20.5649 36.9062H20.6348C21.0046 41.1175 22.9158 44.4449 25.4305 47.2544L25.4305 47.2544C27.7088 49.7997 30.4831 51.9202 33.0573 53.8879ZM20.6575 33.9062H20.5876C21.0917 29.6226 23.725 26.0526 27.2955 24.4334C30.6297 22.9214 34.7705 23.1155 38.7366 26.0058L38.6987 26.0448C34.7479 23.1593 30.6354 22.9734 27.3327 24.4712L27.9522 25.8373L27.3327 24.4712C23.7899 26.0778 21.1613 29.6295 20.6575 33.9062Z" stroke="white" stroke-width="3"/>
<path opacity="0.5" d="M41 28L45.093 32.0596" stroke="white" stroke-width="3" stroke-linecap="round"/>
</svg>
