<svg width="82" height="82" viewBox="0 0 82 82" fill="none" xmlns="http://www.w3.org/2000/svg">
<path d="M21 38C17.1684 38 14.1435 37.0453 12 35C9.85647 32.9288 9 29.8576 9 25.9223V10H15V25.9223C15 28.0971 14.955 29.835 16 31C17.0718 32.1392 19.0708 32.5 21 32.5C22.9292 32.5 24.955 32.1133 26 31C27.0718 29.8867 27 28.0453 27 25.9223V10H33V25.9223C33 29.9612 32.1971 32.9288 30 35C27.8297 37.0712 24.8584 38 21 38Z" fill="white"/>
<path d="M49.8286 37.9612C45.22 37.9612 41.2411 36.5113 37.8918 33.6117L41.5492 29.3786C44.309 31.5793 47.109 32.6796 49.9492 32.6796C51.2085 32.6796 52.1999 32.4466 52.9233 31.9806C53.6468 31.5146 54.0085 30.8673 54.0085 30.0388C54.0085 29.2621 53.6334 28.6408 52.8831 28.1748C52.1329 27.6828 50.619 27.1521 48.3415 26.5825C46.7339 26.1942 45.4344 25.8188 44.443 25.4563C43.4516 25.068 42.5004 24.5631 41.5894 23.9417C40.7052 23.3204 40.0487 22.5437 39.62 21.6117C39.2181 20.6537 39.0172 19.5146 39.0172 18.1942C39.0172 15.7346 39.9282 13.754 41.7502 12.2524C43.599 10.7508 45.9702 10 48.864 10C52.8563 10 56.3396 11.1521 59.3137 13.4563L56.0984 17.9612C53.4458 16.1748 51.0075 15.2816 48.7836 15.2816C47.6315 15.2816 46.7339 15.5146 46.0908 15.9806C45.4746 16.4207 45.1664 17.0032 45.1664 17.7282C45.1664 18.6084 45.5549 19.2686 46.332 19.7087C47.109 20.1489 48.7434 20.6796 51.2353 21.301C54.2898 22.0777 56.5405 23.0744 57.9874 24.2913C59.4343 25.5081 60.1577 27.2557 60.1577 29.534C60.1577 32.1748 59.2065 34.246 57.3042 35.7476C55.4286 37.2233 52.9367 37.9612 49.8286 37.9612Z" fill="white"/>
<path d="M66 38V10H72V38H66Z" fill="white"/>
<path d="M35.7075 67.7942C32.7447 70.5981 29.0272 72 24.5549 72C20.0827 72 16.3652 70.5981 13.4023 67.7942C10.4674 64.9903 9 61.5589 9 57.5C9 53.4678 10.4814 50.0497 13.4443 47.2459C16.4351 44.4153 20.1666 43 24.6388 43C29.111 43 32.8146 44.4019 35.7495 47.2058C38.7123 50.0097 40.1937 53.4411 40.1937 57.5C40.1937 61.5322 38.6983 64.9636 35.7075 67.7942ZM18.2659 63.7486C19.943 65.4576 22.0673 66.3122 24.6388 66.3122C27.2103 66.3122 29.3207 65.471 30.9698 63.7887C32.6189 62.0796 33.4435 59.9834 33.4435 57.5C33.4435 55.0433 32.6049 52.9604 30.9279 51.2514C29.2508 49.5424 27.1265 48.6878 24.5549 48.6878C21.9834 48.6878 19.8731 49.5424 18.224 51.2514C16.5748 52.9337 15.7503 55.0166 15.7503 57.5C15.7503 59.9567 16.5888 62.0396 18.2659 63.7486Z" fill="white"/>
<path d="M46 72L46 43H52L66 61V43H72L72 72H67L53 54L53 72H46Z" fill="white"/>
</svg>
