<svg width="82" height="82" viewBox="0 0 82 82" fill="none" xmlns="http://www.w3.org/2000/svg">
<path d="M58 55L56.7732 45.0275C56.3956 41.9581 53.6758 39.6452 50.4444 39.6452H35.3333C29.6667 39.6452 26.0158 34.7112 24.7215 29.76L24 27" stroke="white" stroke-width="5" stroke-linecap="round" stroke-linejoin="round"/>
<path opacity="0.5" d="M33.333 40.9V50.4C33.333 53.9827 33.333 55.774 34.4395 56.887C35.546 58 37.3269 58 40.8886 58C44.4503 58 46.2311 58 47.3376 56.887C48.4441 55.774 48.4441 53.9827 48.4441 50.4V40.9" stroke="white" stroke-width="5" stroke-linecap="round"/>
<path opacity="0.9" d="M40.8886 35.2C45.0614 35.2 48.4441 31.7974 48.4441 27.6C48.4441 23.4026 45.0614 20 40.8886 20C36.7157 20 33.333 23.4026 33.333 27.6C33.333 31.7974 36.7157 35.2 40.8886 35.2Z" stroke="white" stroke-width="5"/>
</svg>
