<svg width="63" height="62" viewBox="0 0 63 62" fill="none" xmlns="http://www.w3.org/2000/svg">
<g clip-path="url(#clip0_323_1267)">
<path d="M45.1565 0H18.3907C8.53584 0 0.546875 7.93095 0.546875 17.7143V44.2857C0.546875 54.069 8.53584 62 18.3907 62H45.1565C55.0114 62 63.0004 54.069 63.0004 44.2857V17.7143C63.0004 7.93095 55.0114 0 45.1565 0Z" fill="#0077FF"/>
<path fill-rule="evenodd" clip-rule="evenodd" d="M30.926 52.0358C21.3367 52.0358 16.542 52.0358 13.563 49.0784C10.584 46.121 10.584 41.3612 10.584 31.8414V30.1585C10.584 20.6389 10.584 15.8789 13.563 12.9215C16.542 9.96435 21.3367 9.96436 30.926 9.96436H32.6211C42.2104 9.96436 47.0051 9.96435 49.9841 12.9215C52.9631 15.8789 52.9631 20.6389 52.9631 30.1585V31.8414C52.9631 41.3612 52.9631 46.121 49.9841 49.0784C47.0051 52.0358 42.2104 52.0358 32.6211 52.0358H30.926Z" fill="#0077FF"/>
<path fill-rule="evenodd" clip-rule="evenodd" d="M33.148 22.1999L27.9734 20.9167C26.6766 20.5951 25.4192 21.5639 25.4192 22.8848V25.3542L20.2446 24.071C18.9476 23.7494 17.6904 24.7181 17.6904 26.0389V39.7398C17.6904 40.9028 18.4909 41.9168 19.6328 42.2L27.8457 44.2366C29.1426 44.5583 30.3999 43.5895 30.3999 42.2687V39.7992L31.7358 40.1304L30.3999 39.7944V30.0088L30.4002 28.588C30.4002 28.572 30.4001 28.5559 30.3997 28.5401C30.3911 27.7495 30.0126 27.0302 29.4096 26.566L29.3976 26.5567C29.3465 26.5176 29.3324 26.4446 29.369 26.3918C29.4049 26.34 29.4698 26.3154 29.5306 26.3337C30.6126 26.6579 31.6481 27.7593 31.7515 29.1441L32.1087 39.6074C32.1205 39.9513 32.3445 40.2494 32.667 40.3614L35.5745 41.0825C36.8715 41.4041 38.1287 40.4353 38.1287 39.1143V36.6447L38.1309 25.4348C38.1309 25.2373 38.1095 25.054 38.0726 24.8849C37.9499 24.3157 37.6331 23.8101 37.185 23.4486C37.1643 23.4316 37.1454 23.4166 37.1283 23.4035C37.0772 23.3643 37.0632 23.2912 37.0997 23.2385C37.1357 23.1866 37.2006 23.1621 37.2612 23.1803C38.3434 23.5047 39.3789 24.6061 39.4822 25.9909L39.8396 36.4534C39.8519 36.8154 40.1007 37.1263 40.4517 37.2209L43.3034 37.928C44.6003 38.2496 45.8576 37.2809 45.8576 35.9599V22.259C45.8576 21.0961 45.057 20.0821 43.9151 19.799L35.7022 17.7623C34.4053 17.4406 33.148 18.4094 33.148 19.7303V22.1999Z" fill="white"/>
</g>
<defs>
<clipPath id="clip0_323_1267">
<rect width="62.4535" height="62" fill="white" transform="translate(0.546875)"/>
</clipPath>
</defs>
</svg>
