<svg width="82" height="82" viewBox="0 0 82 82" fill="none" xmlns="http://www.w3.org/2000/svg">
<path opacity="0.5" d="M34.9907 30V28C34.9907 24.6863 37.6811 22 41.0001 22C44.3191 22 47.0095 24.6863 47.0095 28V30" stroke="white" stroke-width="5" stroke-linecap="round"/>
<path d="M24.5626 42.0582C25.6386 36.6866 26.1766 34.0007 27.9544 32.2709C28.2829 31.9511 28.6384 31.6602 29.0168 31.4012C31.0644 30 33.8077 30 39.2944 30H42.7055C48.1923 30 50.9356 30 52.9832 31.4012C53.3616 31.6602 53.717 31.9511 54.0457 32.2709C55.8233 34.0007 56.3613 36.6866 57.4374 42.0582C58.9822 49.7702 59.7546 53.6262 57.9765 56.3586C57.6546 56.8534 57.2788 57.311 56.8561 57.7232C54.5212 60 50.5827 60 42.7055 60H39.2944C31.4173 60 27.4788 60 25.144 57.7232C24.7212 57.311 24.3454 56.8534 24.0235 56.3586C22.2454 53.6262 23.0178 49.7702 24.5626 42.0582Z" stroke="white" stroke-width="5"/>
</svg>
