<svg width="83" height="52" viewBox="0 0 83 52" fill="none" xmlns="http://www.w3.org/2000/svg">
<path d="M75.3387 44.7781C79 41.5564 79 36.3709 79 26C79 15.6291 79 10.4436 75.3387 7.22184M75.3387 44.7781C71.6775 48 65.785 48 54 48H29C17.2149 48 11.3223 48 7.66119 44.7781M75.3387 7.22184C71.6775 4 65.785 4 54 4H29C17.2149 4 11.3223 4 7.66119 7.22184M7.66119 7.22184C4 10.4436 4 15.6291 4 26C4 36.3709 4 41.5564 7.66119 44.7781" stroke="#232323" stroke-width="7"/>
<path opacity="0.5" d="M47.75 26C47.75 29.0375 44.9519 31.5 41.5 31.5C38.0481 31.5 35.25 29.0375 35.25 26C35.25 22.9625 38.0481 20.5 41.5 20.5C44.9519 20.5 47.75 22.9625 47.75 26Z" stroke="#232323" stroke-width="7"/>
<path opacity="0.5" d="M79 20.5C68.6444 20.5 60.25 13.1127 60.25 4" stroke="#232323" stroke-width="7" stroke-linecap="round"/>
<path opacity="0.5" d="M79 31.5C68.6444 31.5 60.25 38.8873 60.25 48" stroke="#232323" stroke-width="7" stroke-linecap="round"/>
<path opacity="0.5" d="M4 20.5C14.3553 20.5 22.75 13.1127 22.75 4" stroke="#232323" stroke-width="7" stroke-linecap="round"/>
<path opacity="0.5" d="M4 31.5C14.3553 31.5 22.75 38.8873 22.75 48" stroke="#232323" stroke-width="7" stroke-linecap="round"/>
</svg>
